Coordinates
version=1
nRows=6
nColumns=63
inDegrees=yes

Units are S.I. units (second, meters, Newtons, ...)
If the header above contains a line with 'inDegrees', this indicates whether rotational values are in degrees (yes) or radians (no).

endheader
time	pelvis_tilt	pelvis_list	pelvis_rotation	pelvis_tx	pelvis_ty	pelvis_tz	hip_flexion_r	hip_adduction_r	hip_rotation_r	knee_angle_r	knee_angle_r_beta	ankle_angle_r	subtalar_angle_r	mtp_angle_r	hip_flexion_l	hip_adduction_l	hip_rotation_l	knee_angle_l	knee_angle_l_beta	ankle_angle_l	subtalar_angle_l	mtp_angle_l	L5_S1_Flex_Ext	L5_S1_Lat_Bending	L5_S1_axial_rotation	L4_L5_Flex_Ext	L4_L5_Lat_Bending	L4_L5_axial_rotation	L3_L4_Flex_Ext	L3_L4_Lat_Bending	L3_L4_axial_rotation	L2_L3_Flex_Ext	L2_L3_Lat_Bending	L2_L3_axial_rotation	L1_L2_Flex_Ext	L1_L2_Lat_Bending	L1_L2_axial_rotation	L1_T12_Flex_Ext	L1_T12_Lat_Bending	L1_T12_axial_rotation	Abs_r3	Abs_r2	Abs_r1	Abs_t1	Abs_t2	neck_flexion	neck_bending	neck_rotation	arm_flex_r	arm_add_r	arm_rot_r	elbow_flex_r	pro_sup_r	wrist_flex_r	wrist_dev_r	arm_flex_l	arm_add_l	arm_rot_l	elbow_flex_l	pro_sup_l	wrist_flex_l	wrist_dev_l
      1.73684211	      3.53342272	    -10.15781672	    100.00852081	      0.19404252	      0.99326860	      0.07741621	      6.05048302	      2.77094643	    -23.45438177	     12.86313321	      0.22450403	     33.72478690	     16.10377793	      0.00000000	      8.38104788	     -3.13697487	     -4.91618835	     13.29324054	      0.23201082	     32.39167712	     11.85334407	      0.00000000	      0.30325478	      0.42161998	     -0.69169830	      0.56317445	      0.56075457	     -0.73492945	      0.49821727	      1.02512681	     -0.73492945	      0.34658989	      1.02512681	     -0.60523601	      0.28160239	      0.85976746	     -0.56200487	      0.17327978	      0.65308934	     -0.51877373	      2.16611855	      4.76944950	     -3.84701845	      0.00000000	      0.00000000	     27.86788548	     -2.61300443	     -3.06131259	     -3.25972401	    -25.22601994	     32.09955282	     42.23001156	     77.07281721	      1.47433094	     -7.82526369	      0.32958667	    -19.05924301	     46.24122006	     28.65627844	     73.16017213	     -3.33351362	    -12.24169292
      1.75438596	      3.53511103	    -10.06790897	     99.57389813	      0.19406197	      0.99369933	      0.07720185	      6.02371761	      2.80900164	    -22.86215099	     12.79021346	      0.22323134	     33.90648314	     16.32564802	      0.00000000	      8.13235849	     -3.16278300	     -5.31081443	     13.13994009	      0.22933522	     32.36023440	     11.76993956	      0.00000000	      0.29199587	      0.43767342	     -0.68268382	      0.54226552	      0.58210564	     -0.72535156	      0.47972001	      1.06415915	     -0.72535156	      0.33372208	      1.06415915	     -0.59734834	      0.27114736	      0.89250363	     -0.55468060	      0.16684644	      0.67795612	     -0.51201286	      2.08569728	      4.95104923	     -3.79688259	      0.00000000	      0.00000000	     27.83787992	     -2.47739429	     -2.37311404	     -2.82937712	    -25.37266892	     32.79866522	     41.97268009	     77.01091090	      1.74515522	     -8.21932413	      0.34782148	    -18.81066474	     46.56622281	     28.14521447	     72.75298537	     -3.12227661	    -12.54599561
      1.77192982	      3.56091358	     -9.96707089	     99.25621425	      0.19408077	      0.99404858	      0.07671795	      5.97542819	      2.87541799	    -22.36777005	     12.70205728	      0.22169272	     34.33479231	     16.72984091	      0.00000000	      7.87574245	     -3.26764302	     -6.00306520	     13.01709545	      0.22719117	     32.39985043	     12.29802072	      0.00000000	      0.28184394	      0.45198365	     -0.65889075	      0.52341238	      0.60113825	     -0.70007142	      0.46304140	      1.09895304	     -0.70007142	      0.32211944	      1.09895304	     -0.57652941	      0.26172028	      0.92168506	     -0.53534874	      0.16104563	      0.70012267	     -0.49416806	      2.01318306	      5.11292943	     -3.66455270	      0.00000000	      0.00000000	     27.78061710	     -2.51212474	     -1.99750516	     -2.75870154	    -25.41171973	     32.78840249	     41.87471671	     77.79005128	      1.74709287	     -8.32801731	      0.30118455	    -18.64133952	     46.54234983	     27.94907828	     72.41098942	     -2.78512000	    -12.24952467
      1.78947368	      3.56161331	     -9.88668122	     98.94755998	      0.19405962	      0.99437794	      0.07620776	      5.98103637	      2.93672371	    -21.48601996	     12.65841741	      0.22093106	     34.75899015	     16.65909634	      0.00000000	      7.61504257	     -3.21986255	     -5.75526234	     12.83681475	      0.22404468	     32.26649933	     11.60682367	      0.00000000	      0.27318089	      0.46059689	     -0.61423503	      0.50732423	      0.61259387	     -0.65262472	      0.44880888	      1.11989528	     -0.65262472	      0.31221844	      1.11989528	     -0.53745565	      0.25367577	      0.93924918	     -0.49906596	      0.15609556	      0.71346458	     -0.46067627	      1.95130377	      5.21036415	     -3.41619097	      0.00000000	      0.00000000	     27.73347910	     -2.64984693	     -1.86148983	     -2.67583205	    -25.51499725	     33.14336061	     41.68841022	     77.28424817	      1.94198669	     -8.71841572	      0.47172146	    -18.52178708	     47.35365503	     27.60986393	     71.81917312	     -2.79126680	    -12.39651598
      1.80701754	      3.55654668	     -9.84868816	     98.70337422	      0.19418556	      0.99451179	      0.07568104	      6.01424616	      2.96287636	    -20.90478890	     12.64199531	      0.22064444	     35.27733325	     16.84639229	      0.00000000	      7.43028811	     -3.27709763	     -6.29331610	     12.72639586	      0.22211751	     32.30851085	     12.15565049	      0.00000000	      0.27040589	      0.46199600	     -0.55006059	      0.50217077	      0.61445467	     -0.58443938	      0.44424983	      1.12329706	     -0.58443938	      0.30904689	      1.12329706	     -0.48130302	      0.25109891	      0.94210224	     -0.44692423	      0.15450992	      0.71563180	     -0.41254544	      1.93148220	      5.22619111	     -3.05927200	      0.00000000	      0.00000000	     27.69650732	     -2.98213579	     -2.07779822	     -2.96354767	    -25.49552428	     32.55708430	     41.78854134	     77.77877278	      2.18315305	     -8.78513364	      0.59341541	    -18.48508880	     47.73123590	     27.56404970	     71.74302610	     -2.74843806	    -11.90438129
      1.82456140	      3.49909116	     -9.83289463	     98.26644563	      0.19449023	      0.99464395	      0.07518674	      6.08365210	      2.96182886	    -19.93506642	     12.69094643	      0.22149880	     35.57840529	     16.52823091	      0.00000000	      7.18843965	     -3.11595037	     -5.64020376	     12.49028524	      0.21799660	     32.06021318	     10.88824593	      0.00000000	      0.26769291	      0.45608822	     -0.45323688	      0.49713250	      0.60659734	     -0.48156418	      0.43979268	      1.10893291	     -0.48156418	      0.30594622	      1.10893291	     -0.39658227	      0.24857963	      0.93005511	     -0.36825496	      0.15295973	      0.70648066	     -0.33992766	      1.91210367	      5.15936121	     -2.52076754	      0.00000000	      0.00000000	     27.65369592	     -3.29470330	     -2.40794882	     -2.97763152	    -25.63893736	     33.08632641	     41.67781263	     76.68422299	      2.31880073	     -9.43300566	      0.82702475	    -18.46666071	     48.78082091	     27.33746284	     71.47941581	     -3.10544340	    -12.11319061
